<?xml version="1.0"?>
<svg xmlns="http://www.w3.org/2000/svg" xmlns:xlink="http://www.w3.org/1999/xlink" xmlns:svgjs="http://svgjs.com/svgjs" version="1.1" width="512" height="512" x="0" y="0" viewBox="0 0 512 512" style="enable-background:new 0 0 512 512" xml:space="preserve" class=""><g><g xmlns="http://www.w3.org/2000/svg" id="Retro_Sofa" data-name="Retro Sofa"><path d="m392 400h48v40h-48z" fill="#5f62af" data-original="#7c7d98" style="" class=""/><path d="m72 400h48v40h-48z" fill="#5f62af" data-original="#7c7d98" style="" class=""/><path d="m72 440s7.37429-8 24-8 24 8 24 8v-24h-48z" fill="#2e305e" data-original="#2e305e" style="" class=""/><path d="m392 440s7.37429-8 24-8 24 8 24 8v-24h-48z" fill="#2e305e" data-original="#2e305e" style="" class=""/><path d="m168 72h176a96 96 0 0 1 96 96v160a0 0 0 0 1 0 0h-368a0 0 0 0 1 0 0v-160a96 96 0 0 1 96-96z" fill="#19a4f8" data-original="#f88f19" style="" class=""/><path d="m200 88h112a80 80 0 0 1 80 80v168a0 0 0 0 1 0 0h-272a0 0 0 0 1 0 0v-168a80 80 0 0 1 80-80z" fill="#2d78bb" data-original="#f06000" style="" class=""/><path d="m439.919 176h-24a64 64 0 0 0 -64 64v88h-191.83795v-88a64 64 0 0 0 -64-64h-24a63.96357 63.96357 0 0 0 -32 119.36816v88.63184a32 32 0 0 0 32 32h367.83795a32 32 0 0 0 32-32v-88.63184a63.96357 63.96357 0 0 0 -32-119.36816z" fill="#2d78bb" data-original="#f06000" style="" class=""/><path d="m320 80h-120c-32 0-56 32-56 64s24 64 56 64h120s-24-24-24-64 24-64 24-64z" fill="#19a4f8" data-original="#f88f19" style="" class=""/><path d="m320 152.00018s-16 16-64 16-64-16-64-16z" fill="#1c648f" data-original="#fcaa40" style="" class=""/><path d="m168 264h176a32 32 0 0 1 32 32v24a0 0 0 0 1 0 0h-240a0 0 0 0 1 0 0v-24a32 32 0 0 1 32-32z" fill="#19a4f8" data-original="#f88f19" style="" class=""/><path d="m176 264s16 24 80 24 80-24 80-24z" fill="#6383ff" data-original="#ffc263" style="" class=""/><path d="m144 416v-96s16 16 16 48-16 48-16 48z" fill="#0982b1" data-original="#f4791a" style="" class=""/><path d="m376 320v96s16-16 16-48-16-48-16-48z" fill="#0982b1" data-original="#f4791a" style="" class=""/><g fill="#fcaa40"><path d="m135.99971 239.99991.00029 8.00009h24v-8c-.52539-34.89307-28.90088-64-63.91895-64h-24l-.01709.001c1.36768.00974 63.93572-.001 63.93575 63.99891z" fill="#1c648f" data-original="#fcaa40" style="" class=""/><path d="m376.06425 239.99991-.06425 8.00009h-24l.064-8c.5254-34.89307 28.90088-64 63.919-64h24l.01709.001c-1.36776.00974-63.93581-.001-63.93584 63.99891z" fill="#1c648f" data-original="#fcaa40" style="" class=""/></g></g></g></svg>
